<?xml version="1.0" encoding="utf-8"?>
<!-- Generator: Adobe Illustrator 24.2.3, SVG Export Plug-In . SVG Version: 6.00 Build 0)  -->
<svg version="1.1" id="Layer_1" xmlns="http://www.w3.org/2000/svg" xmlns:xlink="http://www.w3.org/1999/xlink" x="0px" y="0px"
	 viewBox="0 0 2026.77 927.85" style="enable-background:new 0 0 2026.77 927.85;" xml:space="preserve">
<style type="text/css">
	.st0{fill:#791F5E;}
	.st1{fill:#FFFFFF;}
	.st2{fill:#7DBFD8;}
	.st3{fill:#884880;}
	.st4{fill:url(#);}
	.st5{fill:#B73857;}
	.st6{fill:#E0A726;}
	.st7{fill:none;stroke:#FFFFFF;stroke-width:9;stroke-miterlimit:10;}
	.st8{fill:none;}
	.st9{fill:none;stroke:#B73857;stroke-width:7;stroke-miterlimit:10;}
	.st10{fill:none;stroke:#B73857;stroke-width:9;stroke-miterlimit:10;}
	.st11{fill:none;stroke:#7DBFD8;stroke-width:3;stroke-miterlimit:10;}
	.st12{fill:none;stroke:#E0A726;stroke-width:2;stroke-miterlimit:10;}
</style>
<path class="st0" d="M0,0v548.54h69.62v98.9h98.95l0,0v-98.9v-98.95h98.95v98.95v98.9l0,0h97.36h1.6h97.35v-98.9h90.52v98.9h98.17
	v98.9h98.95v-98.9h98.19h0.39h98.56v-98.9h95.61v98.9h98.95v-98.9h99.53v98.9h98.95h99.23v-98.9h90.52v98.9h98.17v98.9h98.95v-98.9
	h98.58v-98.9h0.65h97.87v-98.95h107.98L2034.1,0H0z M751.11,647.4h-97.8v-98.86h97.8V647.4z M1728.17,647.4h-97.8v-98.86h97.8V647.4
	z"/>
<rect y="647.4" class="st0" width="70.33" height="98.9"/>
<rect x="1926.08" y="548.52" class="st0" width="100.69" height="98.9"/>
</svg>
